<?xml version="1.0" standalone="no"?>
<!DOCTYPE svg PUBLIC "-//W3C//DTD SVG 20010904//EN"
 "http://www.w3.org/TR/2001/REC-SVG-20010904/DTD/svg10.dtd">
<svg version="1.0" xmlns="http://www.w3.org/2000/svg"
 width="100.000000pt" height="100.000000pt" viewBox="0 0 100.000000 100.000000"
 preserveAspectRatio="xMidYMid meet">
<metadata>
Created by potrace 1.11, written by Peter Selinger 2001-2013
</metadata>
<g transform="translate(0.000000,100.000000) scale(0.100000,-0.100000)"
fill="#000000" stroke="none">
<path d="M55 857 c-13 -21 -15 -73 -13 -378 l3 -354 455 0 455 0 3 357 c2 347
2 358 -18 378 -19 19 -32 20 -445 20 l-425 0 -15 -23z m863 -119 l3 -98 -421
0 -420 0 0 93 c0 52 3 97 7 100 4 4 191 6 417 5 l411 -3 3 -97z m2 -358 l0
-220 -420 0 -420 0 0 220 0 220 420 0 420 0 0 -220z"/>
<path d="M380 740 l0 -60 240 0 240 0 0 60 0 60 -240 0 -240 0 0 -60z m440 0
c0 -19 -7 -20 -200 -20 -193 0 -200 1 -200 20 0 19 7 20 200 20 193 0 200 -1
200 -20z"/>
<path d="M128 755 c-13 -29 3 -55 33 -55 27 0 46 44 29 65 -19 23 -49 18 -62
-10z"/>
<path d="M258 769 c-22 -12 -23 -42 -3 -59 35 -29 85 26 53 58 -14 14 -27 15
-50 1z"/>
<path d="M237 502 c-20 -22 -20 -88 -1 -119 22 -36 17 -50 -28 -75 -28 -15
-44 -31 -46 -46 -3 -22 -2 -22 117 -22 129 0 136 3 106 47 -8 12 -25 23 -37
25 -34 5 -45 33 -27 65 9 16 17 47 18 70 1 33 -3 45 -21 57 -30 21 -61 20 -81
-2z"/>
<path d="M520 460 c0 -19 7 -20 160 -20 153 0 160 1 160 20 0 19 -7 20 -160
20 -153 0 -160 -1 -160 -20z"/>
<path d="M520 360 c0 -19 7 -20 160 -20 153 0 160 1 160 20 0 19 -7 20 -160
20 -153 0 -160 -1 -160 -20z"/>
<path d="M520 260 c0 -19 7 -20 130 -20 123 0 130 1 130 20 0 19 -7 20 -130
20 -123 0 -130 -1 -130 -20z"/>
</g>
</svg>
